HIERARCHY
ROOT Hips
{
	OFFSET 0.000000 0.000000 0.000000
	CHANNELS 6 Xposition Yposition Zposition Zrotation Yrotation Xrotation 
	JOINT LowerBack
	{
		OFFSET 0.000000 0.000000 0.000000
		CHANNELS 3 Zrotation Yrotation Xrotation
		JOINT Spine
		{
			OFFSET 0.028270 2.035590 -0.193380
			CHANNELS 3 Zrotation Yrotation Xrotation
			JOINT Spine1
			{
				OFFSET 0.056720 2.048850 -0.042750
				CHANNELS 3 Zrotation Yrotation Xrotation
				JOINT Neck
				{
					OFFSET 0.000000 0.000000 0.000000
					CHANNELS 3 Zrotation Yrotation Xrotation
					JOINT Neck1
					{
						OFFSET -0.054170 1.746240 0.172020
						CHANNELS 3 Zrotation Yrotation Xrotation
						JOINT Head
						{
							OFFSET 0.104070 1.761360 -0.123970
							CHANNELS 3 Zrotation Yrotation Xrotation
							End Site
							{
								OFFSET 0.000000 0.000000 0.000000
							}
						}
					}
				}
				JOINT LeftShoulder
				{
					OFFSET 0.000000 0.000000 0.000000
					CHANNELS 3 Zrotation Yrotation Xrotation
					JOINT LeftArm
					{
						OFFSET 3.362410 1.200890 -0.311210
						CHANNELS 3 Zrotation Yrotation Xrotation
						JOINT LeftForeArm
						{
							OFFSET 4.983000 -0.000000 -0.000000
							CHANNELS 3 Zrotation Yrotation Xrotation
							JOINT LeftHand
							{
								OFFSET 3.483560 -0.000000 -0.000000
								CHANNELS 3 Zrotation Yrotation Xrotation
								JOINT LeftFingerBase
								{
									OFFSET 0.000000 0.000000 0.000000
									CHANNELS 3 Zrotation Yrotation Xrotation
									JOINT LeftHandIndex1
									{
										OFFSET 0.715260 -0.000000 -0.000000
										CHANNELS 3 Zrotation Yrotation Xrotation
										End Site
										{
											OFFSET 0.000000 0.000000 0.000000
										}
									}
								}
								JOINT LThumb
								{
									OFFSET 0.000000 0.000000 0.000000
									CHANNELS 3 Zrotation Yrotation Xrotation
									End Site
									{
										OFFSET 0.000000 0.000000 0.000000
									}
								}
							}
						}
					}
				}
				JOINT RightShoulder
				{
					OFFSET 0.000000 0.000000 0.000000
					CHANNELS 3 Zrotation Yrotation Xrotation
					JOINT RightArm
					{
						OFFSET -3.136600 1.374050 -0.404650
						CHANNELS 3 Zrotation Yrotation Xrotation
						JOINT RightForeArm
						{
							OFFSET -5.241900 -0.000000 -0.000000
							CHANNELS 3 Zrotation Yrotation Xrotation
							JOINT RightHand
							{
								OFFSET -3.444170 -0.000000 -0.000000
								CHANNELS 3 Zrotation Yrotation Xrotation
								JOINT RightFingerBase
								{
									OFFSET 0.000000 0.000000 0.000000
									CHANNELS 3 Zrotation Yrotation Xrotation
									JOINT RightHandIndex1
									{
										OFFSET -0.622530 -0.000000 -0.000000
										CHANNELS 3 Zrotation Yrotation Xrotation
										End Site
										{
											OFFSET 0.000000 0.000000 0.000000
										}
									}
								}
								JOINT RThumb
								{
									OFFSET 0.000000 0.000000 0.000000
									CHANNELS 3 Zrotation Yrotation Xrotation
									End Site
									{
										OFFSET 0.000000 0.000000 0.000000
									}
								}
							}
						}
					}
				}
			}
		}
	}
}
}
MOTION
Frames: 15
Frame Time: 0.008333
9.793724 21.362609 0.904813 63.401419 -85.055152 -31.196278 -3.382452 -2.382146 -1.712983 -0.433776 -2.162213 -2.465655 -1.324554 -2.294181 3.032796 4.539339 -21.672181 -7.909522 0.961657 0.091195 -0.180736 0.000000 0.000000 0.000000 13.746241 8.866341 1.508693 -38.519755 5.510771 20.192534 -0.311180 -82.531444 0.033716 -9.604531 -2.210116 0.206568 0.094339 0.220925 0.000000 0.000000 0.000000 0.000000 0.000000 0.000000 0.000000 -3.618589 -17.846616 1.813859 23.349492 11.290309 22.788626 -0.074914 89.371942 0.008868 0.558897 4.862954 0.023073 0.059012 -0.280223 0.000000 0.000000 0.000000 0.000000 0.000000 0.000000 0.000000 
9.718109 21.503933 0.879063 65.138534 -85.012557 -31.683095 -3.629651 -2.462791 -1.475386 -0.486655 -2.235521 -2.413553 -1.291620 -2.364497 3.039230 4.783033 -22.136355 -8.111522 1.056318 0.104392 -0.256038 0.000000 0.000000 0.000000 14.009462 9.055590 1.602531 -37.881392 6.535608 18.902157 -0.267659 -83.263905 0.035626 -9.703878 -2.285817 0.216069 0.095023 0.230943 0.000000 0.000000 0.000000 0.000000 0.000000 0.000000 0.000000 -3.548158 -18.230161 1.861241 22.296294 10.337240 21.365104 179.876855 89.425901 -179.991144 0.378182 5.123278 0.015480 0.064617 -0.293806 0.000000 0.000000 0.000000 0.000000 0.000000 0.000000 0.000000 
9.644345 21.630872 0.856255 66.228240 -85.019865 -31.412445 -3.780958 -2.541984 -1.321191 -0.518289 -2.314012 -2.379732 -1.258752 -2.440913 3.048465 4.987421 -22.563690 -8.280945 1.146504 0.116676 -0.322985 0.000000 0.000000 0.000000 14.304083 9.217822 1.683754 -37.263865 7.663115 17.710010 -0.223204 -83.981633 0.037455 -9.778659 -2.367083 0.225566 0.095371 0.240894 0.000000 0.000000 0.000000 0.000000 0.000000 0.000000 0.000000 -3.500987 -18.581793 1.905940 21.259604 9.347778 20.044690 179.832353 88.341966 -179.991285 0.159960 5.410857 0.005085 0.071010 -0.306838 0.000000 0.000000 0.000000 0.000000 0.000000 0.000000 0.000000 
9.570088 21.742763 0.835273 67.111309 -85.051179 -30.837105 -3.892413 -2.623250 -1.267397 -0.540131 -2.397257 -2.366627 -1.223292 -2.523451 3.066748 5.163541 -22.979793 -8.424712 1.233800 0.128259 -0.382767 0.000000 0.000000 0.000000 14.666583 9.370277 1.750656 -36.702476 8.867631 16.640783 -0.181341 -84.629852 0.039195 -9.837494 -2.450988 0.235062 0.095562 0.250606 0.000000 0.000000 0.000000 0.000000 0.000000 0.000000 0.000000 -3.455503 -18.933563 1.948518 20.223504 8.381545 18.869454 179.793535 87.396124 -179.991231 -0.097504 5.691692 -0.008608 0.078250 -0.318620 0.000000 0.000000 0.000000 0.000000 0.000000 0.000000 0.000000 
9.495261 21.839440 0.816362 67.825938 -85.114624 -30.023678 -3.961164 -2.705131 -1.296367 -0.551153 -2.483604 -2.371688 -1.184972 -2.610308 3.090322 5.311409 -23.378577 -8.549451 1.318721 0.139309 -0.437291 0.000000 0.000000 0.000000 15.094395 9.510245 1.806262 -36.214222 10.157862 15.684653 -0.143196 -85.201278 0.040862 -9.884384 -2.530373 0.243954 0.095600 0.260036 0.000000 0.000000 0.000000 0.000000 0.000000 0.000000 0.000000 -3.414602 -19.274508 1.991841 19.186522 7.441119 17.834148 179.759675 86.581143 -179.992089 -0.385503 5.947175 -0.025205 0.086143 -0.328964 0.000000 0.000000 0.000000 0.000000 0.000000 0.000000 0.000000 
9.421214 21.922311 0.800209 68.264036 -85.226015 -28.917141 -3.967888 -2.784749 -1.347843 -0.548220 -2.571341 -2.384943 -1.148316 -2.698848 3.104480 5.431291 -23.707870 -8.658840 1.397354 0.149622 -0.488387 0.000000 0.000000 0.000000 15.556755 9.604421 1.856602 -35.789706 11.590032 14.799915 -0.106922 -85.739601 0.042453 -9.916766 -2.592422 0.250945 0.095353 0.269098 0.000000 0.000000 0.000000 0.000000 0.000000 0.000000 0.000000 -3.382174 -19.537644 2.040382 18.166062 6.443756 16.892499 179.730229 85.851158 -179.992669 -0.679868 6.176548 -0.043404 0.094158 -0.338124 0.000000 0.000000 0.000000 0.000000 0.000000 0.000000 0.000000 
9.346456 21.991405 0.785944 68.657047 -85.373434 -27.775465 -3.944148 -2.860969 -1.411736 -0.538324 -2.657378 -2.402853 -1.112924 -2.785768 3.112064 5.536432 -23.997183 -8.767482 1.473285 0.159802 -0.540092 0.000000 0.000000 0.000000 16.060279 9.672411 1.904844 -35.434097 13.122482 14.000452 -0.074485 -86.216305 0.044013 -9.949449 -2.646067 0.257233 0.095106 0.277862 0.000000 0.000000 0.000000 0.000000 0.000000 0.000000 0.000000 -3.345599 -19.754624 2.097343 17.163778 5.434725 16.057745 179.705059 85.212516 -179.993323 -0.970905 6.356455 -0.062206 0.102192 -0.345757 0.000000 0.000000 0.000000 0.000000 0.000000 0.000000 0.000000 
9.271376 22.047792 0.773362 69.016866 -85.557259 -26.656594 -3.893587 -2.931623 -1.441803 -0.523737 -2.739524 -2.416015 -1.082994 -2.867997 3.104946 5.636279 -24.225983 -8.883810 1.545112 0.169958 -0.595372 0.000000 0.000000 0.000000 16.576887 9.702151 1.956645 -35.123242 14.763898 13.267617 -0.044782 -86.656540 0.045556 -9.987170 -2.691338 0.262918 0.094924 0.286301 0.000000 0.000000 0.000000 0.000000 0.000000 0.000000 0.000000 -3.297908 -19.897525 2.166297 16.201304 4.374356 15.299669 179.682552 84.635777 -179.993966 -1.236827 6.487013 -0.079812 0.109836 -0.352041 0.000000 0.000000 0.000000 0.000000 0.000000 0.000000 0.000000 
9.195580 22.092820 0.762038 69.394682 -85.773133 -25.645096 -3.827536 -2.993947 -1.409060 -0.508490 -2.814470 -2.418679 -1.061950 -2.941574 3.075724 5.739059 -24.367550 -9.012508 1.611290 0.180087 -0.655839 0.000000 0.000000 0.000000 17.081239 9.675545 2.016404 -34.831339 16.518160 12.594334 -0.016937 -87.078417 0.047101 -10.037817 -2.734378 0.268800 0.094914 0.294370 0.000000 0.000000 0.000000 0.000000 0.000000 0.000000 0.000000 -3.235894 -19.932157 2.249972 15.310462 3.205186 14.599544 179.660748 84.090707 -179.994495 -1.453283 6.569601 -0.094422 0.116649 -0.357093 0.000000 0.000000 0.000000 0.000000 0.000000 0.000000 0.000000 
9.118629 22.127843 0.751606 69.813330 -86.016931 -24.790626 -3.753795 -3.045552 -1.294418 -0.495563 -2.879381 -2.406278 -1.052533 -3.003179 3.021003 5.851579 -24.407630 -9.157235 1.670406 0.190164 -0.722691 0.000000 0.000000 0.000000 17.546236 9.589865 2.087508 -34.531734 18.362023 11.983318 0.009335 -87.488496 0.048652 -10.107713 -2.781580 0.275478 0.095154 0.301981 0.000000 0.000000 0.000000 0.000000 0.000000 0.000000 0.000000 -3.154890 -19.841174 2.349227 14.519779 1.898392 13.944018 179.638194 83.559086 -179.994823 -1.601548 6.609190 -0.104436 0.122263 -0.361034 0.000000 0.000000 0.000000 0.000000 0.000000 0.000000 0.000000 
9.039815 22.154154 0.741835 70.269839 -86.285241 -24.104285 -3.675610 -3.085062 -1.092441 -0.486276 -2.932506 -2.375937 -1.056151 -3.050854 2.943284 5.979571 -24.359591 -9.321250 1.722126 0.200231 -0.796897 0.000000 0.000000 0.000000 17.947021 9.465234 2.171898 -34.203326 20.235680 11.449277 0.033209 -87.873887 0.050201 -10.200927 -2.837200 0.283653 0.095670 0.308977 0.000000 0.000000 0.000000 0.000000 0.000000 0.000000 0.000000 -3.046917 -19.642257 2.462806 13.843057 0.487546 13.328912 179.614556 83.044346 -179.994902 -1.674099 6.611190 -0.109153 0.126504 -0.363953 0.000000 0.000000 0.000000 0.000000 0.000000 0.000000 0.000000 
8.958290 22.172679 0.732571 70.729457 -86.575872 -23.556041 -3.592841 -3.110929 -0.812285 -0.480789 -2.971958 -2.328564 -1.073479 -3.082827 2.845499 6.123401 -24.232172 -9.501320 1.765060 0.210065 -0.877222 0.000000 0.000000 0.000000 18.264007 9.314619 2.269101 -33.832653 22.083318 11.009841 0.053810 -88.219321 0.051724 -10.320165 -2.902684 0.293525 0.096457 0.315114 0.000000 0.000000 0.000000 0.000000 0.000000 0.000000 0.000000 -2.909023 -19.348887 2.587595 13.291984 -0.994066 12.757045 179.589732 82.551226 -179.994710 -1.667861 6.580456 -0.108572 0.129250 -0.365891 0.000000 0.000000 0.000000 0.000000 0.000000 0.000000 0.000000 
8.873151 22.184345 0.723795 71.131006 -86.888393 -23.081347 -3.501972 -3.122068 -0.474952 -0.477836 -2.996327 -2.267630 -1.103972 -3.098134 2.733508 6.280403 -24.045690 -9.691103 1.798203 0.219380 -0.961240 0.000000 0.000000 0.000000 18.487778 9.156308 2.376333 -33.419825 23.837186 10.684545 0.069601 -88.498235 0.053178 -10.465090 -2.975026 0.304798 0.097455 0.320097 0.000000 0.000000 0.000000 0.000000 0.000000 0.000000 0.000000 -2.739955 -18.989738 2.718709 12.866238 -2.479956 12.238881 179.564412 82.094863 -179.994264 -1.588502 6.520281 -0.102893 0.130532 -0.366855 0.000000 0.000000 0.000000 0.000000 0.000000 0.000000 0.000000 
8.783354 22.189557 0.715632 71.397423 -87.223433 -22.591042 -3.399448 -3.116989 -0.111487 -0.475825 -3.003752 -2.200057 -1.146303 -3.095669 2.612039 6.442348 -23.802846 -9.877378 1.819321 0.227589 -1.044166 0.000000 0.000000 0.000000 18.620053 8.990718 2.488370 -32.979116 25.447728 10.486601 0.079142 -88.685056 0.054513 -10.634588 -3.046860 0.316771 0.098583 0.323589 0.000000 0.000000 0.000000 0.000000 0.000000 0.000000 0.000000 -2.546139 -18.573459 2.850128 12.566618 -3.930324 11.789821 179.539132 81.681993 -179.993591 -1.442301 6.433273 -0.092913 0.130367 -0.366840 -0.000000 0.000000 0.000000 0.000000 0.000000 0.000000 0.000000 
8.688196 22.188922 0.708210 71.422989 -87.582230 -21.968853 -3.279881 -3.096496 0.245570 -0.472033 -2.994728 -2.131784 -1.198251 -3.076815 2.492364 6.606006 -23.554701 -10.051693 1.828963 0.234441 -1.122403 0.000000 0.000000 0.000000 18.672175 8.843408 2.598500 -32.537668 26.839655 10.426725 0.080169 -88.743186 0.055664 -10.823960 -3.106508 0.328249 0.099746 0.325270 0.000000 0.000000 0.000000 0.000000 0.000000 0.000000 0.000000 -2.322280 -18.167235 2.974686 12.358663 -5.202411 11.434288 179.516043 81.344429 -179.992806 -1.253816 6.314364 -0.080230 0.129190 -0.365719 -0.000000 0.000000 0.000000 0.000000 0.000000 0.000000 0.000000 
